<svg width="50" height="50" viewBox="0 0 50 50" fill="none" xmlns="http://www.w3.org/2000/svg">
<g clip-path="url(#clip0_3648_8852)">
<g opacity="0.14" clip-path="url(#clip1_3648_8852)">
<path fill-rule="evenodd" clip-rule="evenodd" d="M24.9393 0H25.0607V3.06443C27.9577 3.07227 30.7226 3.64171 33.2524 4.66961V0H33.3738V4.71935C35.5217 5.60717 37.4978 6.82628 39.2385 8.31299H41.5656V0H41.6869V8.31299H50V8.43435H41.6869V10.7614C43.1736 12.502 44.3927 14.4781 45.2806 16.626H50V16.7473H45.3303C46.3582 19.2771 46.9277 22.042 46.9356 24.939H50V25.0603H46.9356C46.9278 27.9573 46.3584 30.7222 45.3306 33.252H50V33.3733H45.2809C44.393 35.5215 43.1738 37.4978 41.6869 39.2387V41.5649H50V41.6863H41.6869V50H41.5656V41.6863H39.2394C37.4985 43.1734 35.522 44.3927 33.3738 45.2807V50H33.2524V45.3304C30.7226 46.3583 27.9577 46.9278 25.0607 46.9356V50H24.9393V46.9356C22.0423 46.9278 19.2773 46.3583 16.7476 45.3304V50H16.6262V45.2807C14.478 44.3927 12.5015 43.1734 10.7606 41.6863H8.43444V50H8.31308V41.6863H0V41.5649H8.31308V39.2387C6.82621 37.4978 5.60698 35.5215 4.71911 33.3733H0V33.2519H4.66938C3.64156 30.7222 3.0722 27.9573 3.0644 25.0603H0V24.939H3.06441C3.0723 22.042 3.64177 19.2771 4.66969 16.7473H0V16.626H4.71943C5.60727 14.4781 6.82639 12.502 8.31308 10.7614V8.43435H0V8.31299H8.31308V0H8.43444V8.31299H10.7615C12.5022 6.82628 14.4783 5.60717 16.6262 4.71935V0H16.7476V4.66961C19.2773 3.64171 22.0423 3.07228 24.9393 3.06443V0ZM24.9393 3.18579C22.041 3.19368 19.2756 3.76679 16.7476 4.8007V8.31299H24.9393V3.18579ZM16.6262 4.85076C14.5527 5.71347 12.6409 6.88693 10.9491 8.31299H16.6262V4.85076ZM10.6206 8.43435H8.43444V10.6205C9.11109 9.84165 9.84176 9.11099 10.6206 8.43435ZM8.43444 10.8062C9.16332 9.95635 9.95646 9.16321 10.8063 8.43435H16.6262V16.626H8.43444V10.8062ZM8.31308 10.949C6.88703 12.6408 5.71357 14.5525 4.85085 16.626H8.31308V10.949ZM4.80078 16.7473C3.76685 19.2754 3.19371 22.0407 3.18577 24.939H8.31308V16.7473H4.80078ZM3.18576 25.0603C3.19361 27.9586 3.76664 30.7239 4.80047 33.2519H8.31308V25.0603H3.18576ZM4.85053 33.3733C5.71328 35.4471 6.88686 37.3591 8.31308 39.0511V33.3733H4.85053ZM8.43444 39.3796V41.5649H10.6197C9.8412 40.8885 9.11084 40.1581 8.43444 39.3796ZM10.8054 41.5649C9.9559 40.8363 9.16306 40.0434 8.43444 39.1938V33.3733H16.6262V41.5649H10.8054ZM10.9482 41.6863C12.6403 43.1127 14.5523 44.2864 16.6262 45.1493V41.6863H10.9482ZM16.7476 45.1994C19.2756 46.2333 22.041 46.8064 24.9393 46.8143V41.6863H16.7476V45.1994ZM25.0607 46.8143C27.959 46.8064 30.7244 46.2333 33.2524 45.1994V41.6863H25.0607V46.8143ZM33.3738 45.1493C35.4477 44.2864 37.3597 43.1127 39.0518 41.6863H33.3738V45.1493ZM39.3803 41.5649H41.5656V39.3796C40.8892 40.1581 40.1588 40.8885 39.3803 41.5649ZM41.5656 39.1938C40.8369 40.0434 40.0441 40.8363 39.1946 41.5649H33.3738V33.3733H41.5656V39.1938ZM41.6869 39.0511C43.1131 37.3591 44.2867 35.4471 45.1495 33.3733H41.6869V39.0511ZM45.1995 33.252C46.2334 30.7239 46.8064 27.9586 46.8142 25.0603H41.6869V33.252H45.1995ZM46.8142 24.939C46.8063 22.0407 46.2332 19.2754 45.1992 16.7473H41.6869V24.939H46.8142ZM45.1492 16.626C44.2864 14.5525 43.113 12.6408 41.6869 10.949V16.626H45.1492ZM41.5656 10.6205V8.43435H39.3794C40.1583 9.11099 40.8889 9.84165 41.5656 10.6205ZM39.1937 8.43435C40.0435 9.16321 40.8367 9.95635 41.5656 10.8062V16.626H33.3738V8.43435H39.1937ZM39.0509 8.31299C37.3591 6.88693 35.4473 5.71347 33.3738 4.85076V8.31299H39.0509ZM33.2524 4.8007C30.7244 3.76679 27.959 3.19368 25.0607 3.18579V8.31299H33.2524V4.8007ZM16.7476 8.43435H24.9393V16.626H16.7476V8.43435ZM33.2524 8.43435H25.0607V16.626H33.2524V8.43435ZM16.6262 33.2519H8.43444V25.0603H16.6262V33.2519ZM16.7476 33.3733V41.5649H24.9393V33.3733H16.7476ZM24.9393 33.2519H16.7476V25.0603H24.9393V33.2519ZM25.0607 33.3733V41.5649H33.2524V33.3733H25.0607ZM33.2524 33.252H25.0607V25.0603H33.2524V33.252ZM41.5656 33.252H33.3738V25.0603H41.5656V33.252ZM16.7476 16.7473H24.9393V24.939H16.7476V16.7473ZM8.43444 16.7473L16.6262 16.7473V24.939H8.43444V16.7473ZM33.2524 16.7473H25.0607V24.939H33.2524V16.7473ZM33.3738 24.939V16.7473H41.5656V24.939H33.3738Z" fill="#0A0D12"/>
</g>
<path d="M0 0H50V37.2C50 41.6804 50 43.9206 49.1281 45.6319C48.3611 47.1372 47.1372 48.3611 45.6319 49.1281C43.9206 50 41.6804 50 37.2 50H12.8C8.31958 50 6.07937 50 4.36808 49.1281C2.86278 48.3611 1.63893 47.1372 0.871948 45.6319C0 43.9206 0 41.6804 0 37.2V0Z" fill="white" fill-opacity="0.2"/>
<path fill-rule="evenodd" clip-rule="evenodd" d="M23.9554 27.5763C23.9554 27.8519 24.0052 28.1082 24.105 28.3452C24.2047 28.5822 24.3405 28.7889 24.5123 28.9653C24.6841 29.1417 24.8891 29.2795 25.1274 29.3787C25.3657 29.4779 25.6234 29.5275 25.9005 29.5275C26.1665 29.5275 26.4186 29.4779 26.6569 29.3787C26.8952 29.2795 27.1002 29.1417 27.272 28.9653C27.4438 28.7889 27.5824 28.5822 27.6877 28.3452C27.7929 28.1082 27.8456 27.8574 27.8456 27.5928C27.8456 27.3283 27.7929 27.0802 27.6877 26.8487C27.5824 26.6172 27.4438 26.4133 27.272 26.2369C27.1002 26.0605 26.8952 25.9227 26.6569 25.8235C26.4186 25.7243 26.1665 25.6747 25.9005 25.6747C25.6345 25.6747 25.3823 25.7243 25.144 25.8235C24.9058 25.9227 24.7007 26.0605 24.5289 26.2369C24.3571 26.4133 24.2186 26.6145 24.1133 26.8405C24.008 27.0665 23.9554 27.3117 23.9554 27.5763ZM19.834 26.6151V31.6709C19.834 31.9137 19.6362 32.1105 19.3923 32.1105H15.9417C15.6977 32.1105 15.5 31.9137 15.5 31.6709V26.6151H9.02147V31.6709C9.02147 31.9137 8.82373 32.1105 8.57981 32.1105H5.12916C4.88524 32.1105 4.6875 31.9137 4.6875 31.6709L4.6875 17.383C4.6875 17.1402 4.88524 16.9434 5.12916 16.9434H8.57981C8.82373 16.9434 9.02147 17.1402 9.02147 17.383V23.098H15.5V17.383C15.5 17.1402 15.6977 16.9434 15.9417 16.9434H19.3923C19.6362 16.9434 19.834 17.1402 19.834 17.383V23.098H24.97C25.0249 23.0961 25.0801 23.0951 25.1357 23.0951C26.233 23.0951 27.103 23.4975 27.7458 24.3022V23.3618C27.7458 23.119 27.9436 22.9222 28.1875 22.9222H30.3299C30.5738 22.9222 30.7716 23.119 30.7716 23.3618V35.4078C30.7716 35.6506 30.5738 35.8474 30.3299 35.8474H28.1875C27.9436 35.8474 27.7458 35.6506 27.7458 35.4078V31.0158C27.0476 31.7433 26.1665 32.1071 25.1025 32.1071C24.4929 32.1071 23.9277 31.9914 23.4067 31.7599C22.8858 31.5284 22.4342 31.2087 22.0518 30.8008C21.6694 30.3929 21.3702 29.9161 21.1541 29.3704C20.938 28.8248 20.8299 28.2433 20.8299 27.6259C20.8299 27.2757 20.8631 26.9388 20.9296 26.6151H19.834Z" fill="#FF4438"/>
<path fill-rule="evenodd" clip-rule="evenodd" d="M29.6243 20.6268C30.0546 19.6258 30.6516 18.7524 31.4151 18.0068C32.1786 17.2612 33.0913 16.6778 34.1533 16.2567C35.2153 15.8356 36.3848 15.625 37.662 15.625C38.9252 15.625 40.0913 15.8356 41.1602 16.2567C42.2292 16.6778 43.1488 17.2612 43.9193 18.0068C44.6897 18.7524 45.2901 19.6258 45.7205 20.6268C46.1508 21.6279 46.366 22.7083 46.366 23.8681C46.366 25.028 46.1508 26.1084 45.7205 27.1095C45.2901 28.1105 44.6897 28.9839 43.9193 29.7295C43.1488 30.4751 42.2292 31.0585 41.1602 31.4796C40.0913 31.9007 38.9252 32.1113 37.662 32.1113C36.3848 32.1113 35.2153 31.9007 34.1533 31.4796C33.1001 31.0619 32.1937 30.4847 31.434 29.7479V23.3626C31.434 22.7556 30.9397 22.2635 30.3299 22.2635H29.1255C29.2328 21.6962 29.3991 21.1506 29.6243 20.6268ZM33.2475 23.8681C33.2475 24.4895 33.3655 25.0625 33.6015 25.5872C33.8375 26.1119 34.1568 26.5675 34.5593 26.9541C34.9619 27.3408 35.4304 27.6411 35.9649 27.8551C36.4994 28.0691 37.065 28.1761 37.662 28.1761C38.2589 28.1761 38.8246 28.0691 39.359 27.8551C39.8935 27.6411 40.3655 27.3408 40.775 26.9541C41.1845 26.5675 41.5073 26.1119 41.7433 25.5872C41.9793 25.0625 42.0973 24.4895 42.0973 23.8681C42.0973 23.2468 41.9793 22.6738 41.7433 22.1491C41.5073 21.6244 41.1845 21.1688 40.775 20.7821C40.3655 20.3955 39.8935 20.0952 39.359 19.8812C38.8246 19.6672 38.2589 19.5602 37.662 19.5602C37.065 19.5602 36.4994 19.6672 35.9649 19.8812C35.4304 20.0952 34.9619 20.3955 34.5593 20.7821C34.1568 21.1688 33.8375 21.6244 33.6015 22.1491C33.3655 22.6738 33.2475 23.2468 33.2475 23.8681Z" fill="#FF4438"/>
</g>
<defs>
<clipPath id="clip0_3648_8852">
<path d="M0 12.8C0 8.31958 0 6.07937 0.871948 4.36808C1.63893 2.86278 2.86278 1.63893 4.36808 0.871948C6.07937 0 8.31958 0 12.8 0H37.2C41.6804 0 43.9206 0 45.6319 0.871948C47.1372 1.63893 48.3611 2.86278 49.1281 4.36808C50 6.07937 50 8.31958 50 12.8V37.2C50 41.6804 50 43.9206 49.1281 45.6319C48.3611 47.1372 47.1372 48.3611 45.6319 49.1281C43.9206 50 41.6804 50 37.2 50H12.8C8.31958 50 6.07937 50 4.36808 49.1281C2.86278 48.3611 1.63893 47.1372 0.871948 45.6319C0 43.9206 0 41.6804 0 37.2V12.8Z" fill="white"/>
</clipPath>
<clipPath id="clip1_3648_8852">
<rect width="50" height="50" fill="white"/>
</clipPath>
</defs>
</svg>
